<?xml version="1.0" ?><svg id="Layer_1" style="enable-background:new 0 0 74 74;" version="1.1" viewBox="0 0 74 74" xml:space="preserve" xmlns="http://www.w3.org/2000/svg" xmlns:xlink="http://www.w3.org/1999/xlink"><style type="text/css">
	.st0{fill:#2B3033;}
</style><path class="st0" d="M65.4,14.7H49.7C48.8,4.3,41.2,4.3,37,4.3s-11.8,0-12.7,10.4H8.6c-4.3,0-7.8,3.4-7.8,7.6v17.1  c0,0.9,0.6,1.7,1.6,1.9c0.4,0.1,0.8,0.2,1.3,0.3v21c0,3.9,3.3,7.1,7.3,7.1H63c4,0,7.3-3.2,7.3-7.1v-21c0.4-0.1,0.8-0.2,1.3-0.3  c0.9-0.2,1.6-1,1.6-1.9V22.3C73.1,18.1,69.7,14.7,65.4,14.7z M37,8.3c5.4,0,8.2,0.7,8.7,6.4H28.3C28.8,9,31.6,8.3,37,8.3z M4.9,22.3  c0-2,1.7-3.6,3.8-3.6h56.7c2.1,0,3.8,1.6,3.8,3.6v15.5c-8.1,1.8-16.4,2.9-24.6,3.3v-2.6c0-2.5-2-4.5-4.6-4.5h-6  c-2.5,0-4.6,2-4.6,4.5v2.6c-8.2-0.4-16.4-1.5-24.6-3.3V22.3z M40.6,38.5v9.6c0,0.3-0.3,0.5-0.6,0.5h-6c-0.3,0-0.6-0.2-0.6-0.5v-9.6  c0-0.3,0.3-0.5,0.6-0.5h6C40.3,38,40.6,38.2,40.6,38.5z M66.3,62.6c0,1.7-1.5,3.1-3.3,3.1H11c-1.8,0-3.3-1.4-3.3-3.1V42.4  c7.2,1.4,14.5,2.3,21.8,2.7v3c0,2.5,2,4.5,4.6,4.5h6c2.5,0,4.6-2,4.6-4.5v-3c7.2-0.4,14.5-1.3,21.8-2.7V62.6z"/></svg>